<?xml version="1.0" encoding="utf-8"?>
<!-- Generator: Adobe Illustrator 24.0.1, SVG Export Plug-In . SVG Version: 6.00 Build 0)  -->
<svg version="1.1" id="Capa_1" xmlns="http://www.w3.org/2000/svg" xmlns:xlink="http://www.w3.org/1999/xlink" x="0px" y="0px"
	 viewBox="0 0 841.9 595.3" style="enable-background:new 0 0 841.9 595.3;" xml:space="preserve">
<style type="text/css">
	.st0{fill:none;stroke:#E85C4A;stroke-width:2;stroke-miterlimit:10;}
	.st1{fill:#E85C4A;}
</style>
<g>
	<path class="st0" d="M499.1,243.5h-66.3c-8.7,0-15.8,7.1-15.8,15.8v94.9c0,20.9,17,37.9,37.9,37.9H477c20.9,0,37.9-17,37.9-37.9
		v-94.9C514.9,250.5,507.8,243.5,499.1,243.5z"/>
	<path class="st0" d="M497,278.1h-62c-9.9,0-17.9,8-17.9,17.9v46.1c0,20.9,17,37.9,37.9,37.9h22c20.9,0,37.9-17,37.9-37.9V296
		C514.9,286.2,506.9,278.1,497,278.1z"/>
	<path class="st0" d="M494.4,283.3h-57c-8.4,0-15.2,6.8-15.2,15.2V329c0,2,1.6,3.6,3.6,3.6h80.3c2,0,3.6-1.6,3.6-3.6v-30.5
		C509.7,290.1,502.8,283.3,494.4,283.3z"/>
</g>
<g>
	<g>
		<path class="st0" d="M485.4,342.1h-39c-3.9,0-7.1,3.2-7.1,7.1v17.7c0,8.4,6.8,13.1,15.1,13.1h22.9c8.4,0,15.1-4.8,15.1-13.1v-17.7
			C492.5,345.3,489.3,342.1,485.4,342.1z"/>
		<path class="st0" d="M492.4,366.9v-3.8c0.1-6.7-5.3-12.1-12-12.1h-29c-6.7,0-12.1,5.4-12.1,12.1v3.8"/>
	</g>
	<path class="st0" d="M492.5,365.5L492.5,365.5h-53.2l0,0"/>
	<ellipse class="st0" cx="450.3" cy="358.3" rx="5.5" ry="5.1"/>
	<ellipse class="st0" cx="465" cy="358.3" rx="5.5" ry="5.1"/>
	<path class="st0" d="M473.7,372.6c0-2.7-3-4.8-7.7-4.8c-4.7,0-7.8,2.1-7.8,4.8c0,2.7,3,4.8,7.8,4.8
		C470.6,377.4,473.7,375.2,473.7,372.6z"/>
	<path class="st0" d="M477.4,385.8l-6.8-9.2c2-0.8,3.1-2.4,3.1-3.9c0-2.7-3-4.8-7.7-4.8c-4.7,0-7.8,2.1-7.8,4.8c0,1.8,1.3,3,3.1,3.9
		l-6.8,9.2"/>
</g>
<g>
	<g>
		<path class="st0" d="M136.2,290.3h-20.1c-2.6,0-4.8,2.2-4.8,4.8v28.7c0,6.3,5.1,11.5,11.5,11.5h6.7c6.3,0,11.5-5.1,11.5-11.5
			v-28.7C141,292.5,138.8,290.3,136.2,290.3z"/>
		<path class="st0" d="M135.6,300.8h-18.8c-3,0-5.4,2.4-5.4,5.4v14c0,6.3,5.1,11.5,11.5,11.5h6.7c6.3,0,11.5-5.1,11.5-11.5v-14
			C141,303.3,138.6,300.8,135.6,300.8z"/>
		<path class="st0" d="M133,305.4h-13.7c-2,0-3.7,1.6-3.7,3.7v7.3c0,0.5,0.4,0.9,0.9,0.9h19.3c0.5,0,0.9-0.4,0.9-0.9v-7.3
			C136.7,307.1,135,305.4,133,305.4z"/>
	</g>
	<g>
		<g>
			<path class="st0" d="M132,320.2h-11.8c-1.2,0-2.2,1-2.2,2.2v5.4c0,2.5,2.1,4,4.6,4h6.9c2.5,0,4.6-1.5,4.6-4v-5.4
				C134.2,321.2,133.2,320.2,132,320.2z"/>
			<path class="st0" d="M134.2,327.7v-1.2c0-2-1.6-3.7-3.6-3.7h-8.8c-2,0-3.7,1.6-3.7,3.7v1.2"/>
		</g>
		<path class="st0" d="M134.2,327.3L134.2,327.3h-16.1l0,0"/>
		<ellipse class="st1" cx="121.5" cy="325.1" rx="1.1" ry="1"/>
		<ellipse class="st1" cx="124.4" cy="325.1" rx="1.1" ry="1"/>
		<path class="st1" d="M128.3,329.5c0-0.7-0.8-1.3-2.1-1.3s-2.2,0.6-2.2,1.3s0.8,1.3,2.2,1.3C127.5,330.9,128.3,330.3,128.3,329.5z"
			/>
		<path class="st0" d="M125.4,330.2l-2.6,3.5"/>
		<path class="st0" d="M129.5,333.7l-2.6-3.5"/>
	</g>
</g>
</svg>
